<?xml version="1.0" standalone="no"?>
<!DOCTYPE svg PUBLIC "-//W3C//DTD SVG 20010904//EN"
 "http://www.w3.org/TR/2001/REC-SVG-20010904/DTD/svg10.dtd">
<svg version="1.0" xmlns="http://www.w3.org/2000/svg"
 width="1000.000000pt" height="1000.000000pt" viewBox="0 0 1000.000000 1000.000000"
 preserveAspectRatio="xMidYMid meet">
<metadata>
Created by potrace 1.14, written by Peter Selinger 2001-2017
</metadata>
<g transform="translate(0.000000,1000.000000) scale(0.100000,-0.100000)"
fill="#000000" stroke="none">
<path d="M4742 9817 c-12 -13 -22 -33 -22 -46 0 -56 -35 -183 -70 -256 -191
-396 -844 -700 -1870 -869 -206 -34 -526 -72 -739 -88 -234 -17 -216 8 -225
-304 -3 -132 -13 -446 -21 -699 -73 -2292 -85 -3867 -32 -4071 15 -58 210
-433 343 -661 456 -780 1065 -1476 1739 -1986 307 -232 644 -440 974 -600 131
-64 165 -77 172 -66 8 12 10 12 18 0 7 -11 41 2 172 66 877 426 1653 1085
2289 1943 124 167 317 461 425 645 133 226 333 614 344 667 50 226 37 1802
-34 4063 -8 253 -18 568 -21 699 l-7 239 -26 27 c-25 26 -32 28 -186 39 -640
45 -1285 169 -1752 337 -165 59 -402 175 -523 256 -52 34 -135 104 -185 153
-135 136 -194 248 -216 410 -18 132 -2 125 -288 125 -235 0 -238 0 -259 -23z
m618 -1495 c443 -104 774 -410 914 -842 63 -192 71 -256 71 -540 -1 -227 -3
-267 -23 -360 -32 -146 -74 -266 -134 -383 -194 -377 -547 -627 -972 -686
-185 -26 -475 -9 -641 38 -390 110 -706 411 -844 804 -63 181 -75 266 -76 537
0 263 8 334 60 515 35 123 140 332 219 436 199 262 472 428 806 489 145 27
491 22 620 -8z m105 -3838 c124 -15 249 -42 323 -71 l42 -16 0 -282 0 -283
-75 43 c-144 82 -339 134 -535 142 -249 11 -426 -54 -493 -181 -29 -56 -29
-146 0 -202 51 -96 200 -196 458 -304 386 -163 586 -312 685 -515 60 -121 74
-187 74 -350 -1 -166 -16 -240 -77 -365 -33 -69 -58 -102 -132 -176 -78 -78
-104 -97 -195 -142 -104 -51 -224 -88 -370 -114 -50 -9 -163 -13 -335 -13
-223 0 -277 3 -380 22 -126 23 -255 60 -342 99 l-53 23 0 305 0 305 65 -49
c85 -64 267 -153 376 -184 366 -104 727 -26 784 168 19 62 19 80 0 143 -18 61
-83 138 -164 192 -72 49 -159 93 -351 176 -289 125 -407 199 -532 333 -177
193 -235 500 -143 765 145 418 659 618 1370 531z"/>
<path d="M4932 7819 c-319 -31 -551 -278 -618 -659 -19 -112 -19 -368 1 -481
33 -194 107 -343 229 -464 133 -132 265 -185 461 -185 336 0 575 202 666 563
27 106 38 405 19 541 -64 470 -346 725 -758 685z"/>
</g>
</svg>
